<svg xmlns="http://www.w3.org/2000/svg" viewBox="0 0 600 600" opacity="0.25">
<defs><radialGradient id="moon" cx="50%" cy="30%"><stop offset="0" stop-color="#f0e0b0" stop-opacity="0.4"/><stop offset="0.5" stop-color="#c0a060" stop-opacity="0.15"/><stop offset="1" stop-color="#c0a060" stop-opacity="0"/></radialGradient></defs>
<circle cx="300" cy="120" r="60" fill="url(#moon)"/>
<circle cx="300" cy="120" r="50" fill="none" stroke="#c0a060" stroke-width="1" opacity="0.3"/>
<circle cx="300" cy="120" r="55" fill="none" stroke="#cc0020" stroke-width="0.5" opacity="0.2"/>
<path d="M270,380 C270,380 280,350 290,330 C295,320 300,310 300,310 C300,310 305,320 310,330 C320,350 330,380 330,380" fill="none" stroke="#cc0020" stroke-width="1.5" opacity="0.3"/>
<line x1="300" y1="290" x2="300" y2="310" stroke="#888" stroke-width="2" opacity="0.25"/>
<circle cx="300" cy="280" r="8" fill="none" stroke="#888" stroke-width="1" opacity="0.2"/>
<line x1="300" y1="380" x2="280" y2="450" stroke="#888" stroke-width="1.5" opacity="0.2"/>
<line x1="300" y1="380" x2="320" y2="450" stroke="#888" stroke-width="1.5" opacity="0.2"/>
<line x1="300" y1="340" x2="260" y2="370" stroke="#888" stroke-width="1" opacity="0.15"/>
<line x1="300" y1="340" x2="340" y2="370" stroke="#888" stroke-width="1" opacity="0.15"/>
<path d="M260,370 L240,360 L230,380" fill="none" stroke="#cc0020" stroke-width="1" opacity="0.2"/>
<rect x="295" y="310" width="10" height="70" rx="2" fill="#888" opacity="0.1"/>
<circle cx="200" cy="150" r="1" fill="#f0e0b0" opacity="0.3"/>
<circle cx="400" cy="100" r="1.5" fill="#f0e0b0" opacity="0.25"/>
<circle cx="150" cy="80" r="1" fill="#f0e0b0" opacity="0.2"/>
<circle cx="450" cy="180" r="1" fill="#f0e0b0" opacity="0.2"/>
<circle cx="500" cy="60" r="0.8" fill="#f0e0b0" opacity="0.15"/>
<circle cx="100" cy="200" r="0.8" fill="#cc0020" opacity="0.15"/>
<circle cx="350" cy="500" r="2" fill="#cc0020" opacity="0.1"/>
</svg>
