<svg xmlns="http://www.w3.org/2000/svg" viewBox="0 0 600 600" opacity="0.25">
<defs>
<radialGradient id="water" cx="50%" cy="100%"><stop offset="0" stop-color="#40a8e0" stop-opacity="0.3"/><stop offset="0.6" stop-color="#40a8e0" stop-opacity="0.1"/><stop offset="1" stop-color="#40a8e0" stop-opacity="0"/></radialGradient>
<radialGradient id="pyre" cx="50%" cy="50%"><stop offset="0" stop-color="#c0a040" stop-opacity="0.5"/><stop offset="0.5" stop-color="#c0a040" stop-opacity="0.15"/><stop offset="1" stop-color="#c0a040" stop-opacity="0"/></radialGradient>
</defs>
<ellipse cx="300" cy="550" rx="300" ry="80" fill="url(#water)"/>
<path d="M50,500 Q100,480 150,490 Q200,500 250,485 Q300,470 350,485 Q400,500 450,490 Q500,480 550,500" fill="none" stroke="#40a8e0" stroke-width="1" opacity="0.25"/>
<path d="M30,520 Q80,505 130,515 Q180,525 230,510 Q280,495 330,510 Q380,525 430,515 Q480,505 530,520 Q580,535 600,530" fill="none" stroke="#40a8e0" stroke-width="0.8" opacity="0.2"/>
<path d="M0,540 Q60,528 120,538 Q180,548 240,533 Q300,518 360,533 Q420,548 480,538 Q540,528 600,540" fill="none" stroke="#40a8e0" stroke-width="0.6" opacity="0.15"/>
<circle cx="280" cy="200" r="20" fill="url(#pyre)"/>
<circle cx="340" cy="220" r="15" fill="url(#pyre)" opacity="0.7"/>
<circle cx="260" cy="240" r="12" fill="url(#pyre)" opacity="0.5"/>
<circle cx="380" cy="180" r="10" fill="url(#pyre)" opacity="0.4"/>
<circle cx="200" cy="260" r="8" fill="url(#pyre)" opacity="0.3"/>
<circle cx="400" cy="250" r="9" fill="url(#pyre)" opacity="0.35"/>
<circle cx="150" cy="300" r="6" fill="#40a8e0" opacity="0.2"/>
<circle cx="450" cy="280" r="5" fill="#40a8e0" opacity="0.18"/>
<circle cx="100" cy="350" r="4" fill="#c0a040" opacity="0.15"/>
<circle cx="500" cy="320" r="4" fill="#c0a040" opacity="0.12"/>
<circle cx="220" cy="160" r="3" fill="#c0a040" opacity="0.25"/>
<circle cx="360" cy="140" r="3" fill="#c0a040" opacity="0.2"/>
<circle cx="300" cy="100" r="2" fill="#c0a040" opacity="0.3"/>
<circle cx="180" cy="400" r="3" fill="#40a8e0" opacity="0.15"/>
<circle cx="420" cy="380" r="3" fill="#40a8e0" opacity="0.12"/>
</svg>
