<svg xmlns="http://www.w3.org/2000/svg" viewBox="0 0 600 600" opacity="0.25">
<defs><radialGradient id="rg" cx="50%" cy="50%"><stop offset="0" stop-color="#d4a844" stop-opacity="0.4"/><stop offset="0.5" stop-color="#d4a844" stop-opacity="0.15"/><stop offset="1" stop-color="#d4a844" stop-opacity="0"/></radialGradient></defs>
<circle cx="300" cy="300" r="150" fill="none" stroke="#d4a844" stroke-width="2" opacity="0.35"/>
<circle cx="300" cy="300" r="140" fill="none" stroke="#d4a844" stroke-width="0.5" opacity="0.2"/>
<circle cx="300" cy="300" r="160" fill="none" stroke="#d4a844" stroke-width="0.5" opacity="0.15"/>
<circle cx="300" cy="300" r="120" fill="url(#rg)" opacity="0.3"/>
<path d="M300,150 C340,170 360,190 370,220 C380,250 375,280 360,300 C345,320 320,330 300,335 C280,330 255,320 240,300 C225,280 220,250 230,220 C240,190 260,170 300,150Z" fill="none" stroke="#d4a844" stroke-width="1" opacity="0.2"/>
<text x="160" y="290" fill="#d4a844" font-size="10" font-family="serif" opacity="0.25" transform="rotate(-10,300,300)">One Ring to rule them all</text>
<text x="168" y="320" fill="#d4a844" font-size="10" font-family="serif" opacity="0.2" transform="rotate(5,300,300)">One Ring to find them</text>
<text x="175" y="350" fill="#d4a844" font-size="9" font-family="serif" opacity="0.15" transform="rotate(-3,300,300)">One Ring to bring them all</text>
<circle cx="300" cy="300" r="60" fill="#d4a844" opacity="0.06"/>
<circle cx="200" cy="480" r="2" fill="#d4a844" opacity="0.2"/>
<circle cx="400" cy="500" r="2" fill="#d4a844" opacity="0.15"/>
<circle cx="150" cy="150" r="1.5" fill="#d4a844" opacity="0.1"/>
<circle cx="450" cy="120" r="1.5" fill="#d4a844" opacity="0.1"/>
</svg>
