<svg xmlns="http://www.w3.org/2000/svg" viewBox="0 0 600 600" opacity="0.2">
<rect x="0" y="0" width="40" height="40" fill="#55bb55" opacity="0.15"/>
<rect x="40" y="0" width="40" height="40" fill="#44aa44" opacity="0.12"/>
<rect x="80" y="0" width="40" height="40" fill="#55bb55" opacity="0.1"/>
<rect x="0" y="40" width="40" height="40" fill="#44aa44" opacity="0.12"/>
<rect x="40" y="40" width="40" height="40" fill="#55bb55" opacity="0.14"/>
<rect x="80" y="40" width="40" height="40" fill="#44aa44" opacity="0.11"/>
<rect x="200" y="300" width="40" height="40" fill="#8b6914" opacity="0.15"/>
<rect x="240" y="300" width="40" height="40" fill="#8b6914" opacity="0.12"/>
<rect x="280" y="300" width="40" height="40" fill="#8b6914" opacity="0.15"/>
<rect x="320" y="300" width="40" height="40" fill="#8b6914" opacity="0.12"/>
<rect x="200" y="340" width="40" height="40" fill="#666" opacity="0.12"/>
<rect x="240" y="340" width="40" height="40" fill="#777" opacity="0.1"/>
<rect x="280" y="340" width="40" height="40" fill="#666" opacity="0.12"/>
<rect x="320" y="340" width="40" height="40" fill="#777" opacity="0.1"/>
<rect x="200" y="380" width="40" height="40" fill="#777" opacity="0.1"/>
<rect x="240" y="380" width="40" height="40" fill="#666" opacity="0.12"/>
<rect x="280" y="380" width="40" height="40" fill="#777" opacity="0.1"/>
<rect x="320" y="380" width="40" height="40" fill="#666" opacity="0.12"/>
<rect x="420" y="200" width="30" height="30" fill="#55bb55" opacity="0.12"/>
<rect x="420" y="230" width="30" height="30" fill="#44aa44" opacity="0.1"/>
<rect x="450" y="200" width="30" height="30" fill="#44aa44" opacity="0.1"/>
<rect x="100" y="450" width="35" height="35" fill="#87ceeb" opacity="0.1"/>
<rect x="135" y="450" width="35" height="35" fill="#87ceeb" opacity="0.08"/>
<rect x="400" y="450" width="40" height="40" fill="#ff4444" opacity="0.08"/>
<rect x="440" y="450" width="40" height="40" fill="#ff4444" opacity="0.06"/>
<rect x="260" y="200" width="8" height="8" fill="#55bb55" opacity="0.3"/>
<rect x="268" y="192" width="8" height="8" fill="#44aa44" opacity="0.25"/>
</svg>
