<svg xmlns="http://www.w3.org/2000/svg" viewBox="0 0 600 600" opacity="0.3">
<defs><linearGradient id="g" x1="0" y1="0" x2="0" y2="1"><stop offset="0" stop-color="#6fecff" stop-opacity="0.8"/><stop offset="1" stop-color="#6fecff" stop-opacity="0"/></linearGradient></defs>
<line x1="0" y1="600" x2="300" y2="200" stroke="#6fecff" stroke-width="0.5" opacity="0.4"/>
<line x1="60" y1="600" x2="310" y2="200" stroke="#6fecff" stroke-width="0.5" opacity="0.35"/>
<line x1="120" y1="600" x2="320" y2="200" stroke="#6fecff" stroke-width="0.5" opacity="0.3"/>
<line x1="180" y1="600" x2="330" y2="200" stroke="#6fecff" stroke-width="0.5" opacity="0.25"/>
<line x1="240" y1="600" x2="340" y2="200" stroke="#6fecff" stroke-width="0.5" opacity="0.3"/>
<line x1="300" y1="600" x2="350" y2="200" stroke="#6fecff" stroke-width="0.5" opacity="0.35"/>
<line x1="360" y1="600" x2="360" y2="200" stroke="#6fecff" stroke-width="0.5" opacity="0.3"/>
<line x1="420" y1="600" x2="370" y2="200" stroke="#6fecff" stroke-width="0.5" opacity="0.25"/>
<line x1="480" y1="600" x2="380" y2="200" stroke="#6fecff" stroke-width="0.5" opacity="0.3"/>
<line x1="540" y1="600" x2="390" y2="200" stroke="#6fecff" stroke-width="0.5" opacity="0.35"/>
<line x1="600" y1="600" x2="400" y2="200" stroke="#6fecff" stroke-width="0.5" opacity="0.4"/>
<line x1="0" y1="600" x2="600" y2="600" stroke="#6fecff" stroke-width="0.5" opacity="0.3"/>
<line x1="30" y1="550" x2="570" y2="550" stroke="#6fecff" stroke-width="0.4" opacity="0.2"/>
<line x1="60" y1="500" x2="540" y2="500" stroke="#6fecff" stroke-width="0.4" opacity="0.18"/>
<line x1="90" y1="450" x2="510" y2="450" stroke="#6fecff" stroke-width="0.3" opacity="0.15"/>
<line x1="120" y1="400" x2="480" y2="400" stroke="#6fecff" stroke-width="0.3" opacity="0.12"/>
<line x1="150" y1="350" x2="450" y2="350" stroke="#6fecff" stroke-width="0.3" opacity="0.1"/>
<line x1="180" y1="300" x2="420" y2="300" stroke="#6fecff" stroke-width="0.2" opacity="0.08"/>
<line x1="210" y1="250" x2="390" y2="250" stroke="#6fecff" stroke-width="0.2" opacity="0.06"/>
<circle cx="300" cy="200" r="4" fill="#6fecff" opacity="0.5"/>
<circle cx="30" cy="550" r="2" fill="#6fecff" opacity="0.3"/>
<circle cx="570" cy="550" r="2" fill="#6fecff" opacity="0.3"/>
<circle cx="120" cy="400" r="2" fill="#6fecff" opacity="0.2"/>
<circle cx="480" cy="400" r="2" fill="#6fecff" opacity="0.2"/>
</svg>
